<svg xmlns="http://www.w3.org/2000/svg" xmlns:xlink="http://www.w3.org/1999/xlink" width="840" height="561.04"><rect width="840" height="561.04" rx="0" ry="0" class="a"></rect><svg height="521.04" viewBox="0 0 80 52.104" width="800" x="20" xmlns="http://www.w3.org/2000/svg" xmlns:xlink="http://www.w3.org/1999/xlink" y="20"><style>.a{fill:rgb(255,255,255)}.b{font-family:'Fira Code',Monaco,Consolas,Menlo,'Bitstream Vera Sans Mono','Powerline Symbols',monospace}.c{fill:transparent}.d{fill:rgb(0,22,46);white-space:pre}.e{fill:rgb(0,22,46);font-weight:bold;white-space:pre}.f{fill:rgb(100,149,237);font-weight:bold;white-space:pre}.g{fill:rgb(100,149,237);white-space:pre}</style><g font-family="&#x27;Fira Code&#x27;,Monaco,Consolas,Menlo,&#x27;Bitstream Vera Sans Mono&#x27;,&#x27;Powerline Symbols&#x27;,monospace" font-size="1.67" class="b"><defs><symbol id="a"><rect height="24" width="80" x="0" y="0" class="c"></rect></symbol></defs><rect height="52.104" width="80" class="a"></rect><svg x="0" y="0" width="80"><svg x="0"><use xlink:href="#a"></use><text font-size="1.67" x="0" y="3.8409999999999997" class="d">──</text><text font-size="1.67" x="3.006" y="3.8409999999999997" class="e">An</text><text font-size="1.67" x="6.012" y="3.8409999999999997" class="e">epi_archive</text><text font-size="1.67" x="18.035999999999998" y="3.8409999999999997" class="e">spanning</text><text font-size="1.67" x="27.054" y="3.8409999999999997" class="f">2020-06-01</text><text font-size="1.67" x="38.07599999999999" y="3.8409999999999997" class="e">to</text><text font-size="1.67" x="41.082" y="3.8409999999999997" class="f">2020-06-01</text><text font-size="1.67" x="51.102" y="3.8409999999999997" class="e">.</text><text font-size="1.67" x="53.105999999999995" y="3.8409999999999997" class="d">──</text><text font-size="1.67" x="0" y="8.183" class="d">──</text><text font-size="1.67" x="3.006" y="8.183" class="d">Min</text><text font-size="1.67" x="7.013999999999999" y="8.183" class="d">lag</text><text font-size="1.67" x="11.021999999999998" y="8.183" class="d">(time</text><text font-size="1.67" x="17.034" y="8.183" class="d">to</text><text font-size="1.67" x="20.04" y="8.183" class="d">first</text><text font-size="1.67" x="26.052" y="8.183" class="d">version):</text><text font-size="1.67" x="5.01" y="10.354" class="d">min</text><text font-size="1.67" x="9.017999999999999" y="10.354" class="d">median</text><text font-size="1.67" x="18.035999999999998" y="10.354" class="d">mean</text><text font-size="1.67" x="26.052" y="10.354" class="d">max</text><text font-size="1.67" x="2.004" y="12.525" class="d">1</text><text font-size="1.67" x="4.008" y="12.525" class="d">days</text><text font-size="1.67" x="9.017999999999999" y="12.525" class="d">1</text><text font-size="1.67" x="11.021999999999998" y="12.525" class="d">days</text><text font-size="1.67" x="16.032" y="12.525" class="d">1</text><text font-size="1.67" x="18.035999999999998" y="12.525" class="d">days</text><text font-size="1.67" x="23.045999999999996" y="12.525" class="d">2</text><text font-size="1.67" x="25.05" y="12.525" class="d">days</text><text font-size="1.67" x="0" y="16.866999999999997" class="d">──</text><text font-size="1.67" x="3.006" y="16.866999999999997" class="d">Fraction</text><text font-size="1.67" x="12.024" y="16.866999999999997" class="d">of</text><text font-size="1.67" x="15.029999999999998" y="16.866999999999997" class="d">epi_key</text><text font-size="1.67" x="23.045999999999996" y="16.866999999999997" class="d">+</text><text font-size="1.67" x="25.05" y="16.866999999999997" class="d">time_values</text><text font-size="1.67" x="37.074" y="16.866999999999997" class="d">with</text><text font-size="1.67" x="0" y="19.037999999999997" class="d">No</text><text font-size="1.67" x="3.006" y="19.037999999999997" class="d">revisions:</text><text font-size="1.67" x="0" y="21.209000000000003" class="d">•</text><text font-size="1.67" x="2.004" y="21.209000000000003" class="d">523</text><text font-size="1.67" x="6.012" y="21.209000000000003" class="d">out</text><text font-size="1.67" x="10.02" y="21.209000000000003" class="d">of</text><text font-size="1.67" x="13.026" y="21.209000000000003" class="d">1,956</text><text font-size="1.67" x="19.037999999999997" y="21.209000000000003" class="d">(26.74%)</text><text font-size="1.67" x="0" y="23.380000000000003" class="d">Quick</text><text font-size="1.67" x="6.012" y="23.380000000000003" class="d">revisions</text><text font-size="1.67" x="16.032" y="23.380000000000003" class="d">(last</text><text font-size="1.67" x="22.043999999999997" y="23.380000000000003" class="d">revision</text><text font-size="1.67" x="31.061999999999998" y="23.380000000000003" class="d">within</text><text font-size="1.67" x="38.07599999999999" y="23.380000000000003" class="d">3</text><text font-size="1.67" x="40.08" y="23.380000000000003" class="d">days</text><text font-size="1.67" x="45.089999999999996" y="23.380000000000003" class="d">of</text><text font-size="1.67" x="48.096" y="23.380000000000003" class="d">the</text><text font-size="1.67" x="52.104" y="23.380000000000003" class="d">`time_value`):</text><text font-size="1.67" x="0" y="25.550999999999995" class="d">•</text><text font-size="1.67" x="2.004" y="25.550999999999995" class="d">531</text><text font-size="1.67" x="6.012" y="25.550999999999995" class="d">out</text><text font-size="1.67" x="10.02" y="25.550999999999995" class="d">of</text><text font-size="1.67" x="13.026" y="25.550999999999995" class="d">1,956</text><text font-size="1.67" x="19.037999999999997" y="25.550999999999995" class="d">(27.15%)</text><text font-size="1.67" x="0" y="27.722" class="d">Few</text><text font-size="1.67" x="4.008" y="27.722" class="d">revisions</text><text font-size="1.67" x="14.027999999999999" y="27.722" class="d">(At</text><text font-size="1.67" x="18.035999999999998" y="27.722" class="d">most</text><text font-size="1.67" x="23.045999999999996" y="27.722" class="g">3</text><text font-size="1.67" x="25.05" y="27.722" class="d">revisions</text><text font-size="1.67" x="35.06999999999999" y="27.722" class="d">for</text><text font-size="1.67" x="39.077999999999996" y="27.722" class="d">that</text><text font-size="1.67" x="44.087999999999994" y="27.722" class="d">`time_value`):</text><text font-size="1.67" x="0" y="29.893" class="d">•</text><text font-size="1.67" x="2.004" y="29.893" class="d">1,182</text><text font-size="1.67" x="8.016" y="29.893" class="d">out</text><text font-size="1.67" x="12.024" y="29.893" class="d">of</text><text font-size="1.67" x="15.029999999999998" y="29.893" class="d">1,956</text><text font-size="1.67" x="21.041999999999998" y="29.893" class="d">(60.43%)</text><text font-size="1.67" x="0" y="34.235" class="d">──</text><text font-size="1.67" x="3.006" y="34.235" class="d">Fraction</text><text font-size="1.67" x="12.024" y="34.235" class="d">of</text><text font-size="1.67" x="15.029999999999998" y="34.235" class="d">revised</text><text font-size="1.67" x="23.045999999999996" y="34.235" class="d">epi_key</text><text font-size="1.67" x="31.061999999999998" y="34.235" class="d">+</text><text font-size="1.67" x="33.065999999999995" y="34.235" class="d">time_values</text><text font-size="1.67" x="45.089999999999996" y="34.235" class="d">which</text><text font-size="1.67" x="51.102" y="34.235" class="d">have:</text><text font-size="1.67" x="0" y="36.406" class="d">Less</text><text font-size="1.67" x="5.01" y="36.406" class="d">than</text><text font-size="1.67" x="10.02" y="36.406" class="g">0.1</text><text font-size="1.67" x="14.027999999999999" y="36.406" class="d">spread</text><text font-size="1.67" x="21.041999999999998" y="36.406" class="d">in</text><text font-size="1.67" x="24.048" y="36.406" class="d">relative</text><text font-size="1.67" x="33.065999999999995" y="36.406" class="d">value:</text><text font-size="1.67" x="0" y="38.577000000000005" class="d">•</text><text font-size="1.67" x="2.004" y="38.577000000000005" class="d">1,312</text><text font-size="1.67" x="8.016" y="38.577000000000005" class="d">out</text><text font-size="1.67" x="12.024" y="38.577000000000005" class="d">of</text><text font-size="1.67" x="15.029999999999998" y="38.577000000000005" class="d">1,433</text><text font-size="1.67" x="21.041999999999998" y="38.577000000000005" class="d">(91.56%)</text><text font-size="1.67" x="0" y="40.748000000000005" class="d">Spread</text><text font-size="1.67" x="7.013999999999999" y="40.748000000000005" class="d">of</text><text font-size="1.67" x="10.02" y="40.748000000000005" class="d">more</text><text font-size="1.67" x="15.029999999999998" y="40.748000000000005" class="d">than</text><text font-size="1.67" x="20.04" y="40.748000000000005" class="g">6.351</text><text font-size="1.67" x="26.052" y="40.748000000000005" class="d">in</text><text font-size="1.67" x="29.058" y="40.748000000000005" class="d">actual</text><text font-size="1.67" x="36.071999999999996" y="40.748000000000005" class="d">value</text><text font-size="1.67" x="42.083999999999996" y="40.748000000000005" class="d">(when</text><text font-size="1.67" x="48.096" y="40.748000000000005" class="d">revised):</text><text font-size="1.67" x="0" y="42.919" class="d">•</text><text font-size="1.67" x="2.004" y="42.919" class="d">39</text><text font-size="1.67" x="5.01" y="42.919" class="d">out</text><text font-size="1.67" x="9.017999999999999" y="42.919" class="d">of</text><text font-size="1.67" x="12.024" y="42.919" class="d">1,433</text><text font-size="1.67" x="18.035999999999998" y="42.919" class="d">(2.72%)</text><text font-size="1.67" x="0" y="47.261" class="d">──</text><text font-size="1.67" x="3.006" y="47.261" class="d">Days</text><text font-size="1.67" x="8.016" y="47.261" class="d">until</text><text font-size="1.67" x="14.027999999999999" y="47.261" class="d">within</text><text font-size="1.67" x="21.041999999999998" y="47.261" class="g">20</text><text font-size="1.67" x="23.045999999999996" y="47.261" class="d">%</text><text font-size="1.67" x="25.05" y="47.261" class="d">of</text><text font-size="1.67" x="28.055999999999997" y="47.261" class="d">the</text><text font-size="1.67" x="32.064" y="47.261" class="d">latest</text><text font-size="1.67" x="39.077999999999996" y="47.261" class="d">value:</text><text font-size="1.67" x="5.01" y="49.431999999999995" class="d">min</text><text font-size="1.67" x="9.017999999999999" y="49.431999999999995" class="d">median</text><text font-size="1.67" x="20.04" y="49.431999999999995" class="d">mean</text><text font-size="1.67" x="29.058" y="49.431999999999995" class="d">max</text><text font-size="1.67" x="2.004" y="51.603" class="d">1</text><text font-size="1.67" x="4.008" y="51.603" class="d">days</text><text font-size="1.67" x="9.017999999999999" y="51.603" class="d">1</text><text font-size="1.67" x="11.021999999999998" y="51.603" class="d">days</text><text font-size="1.67" x="16.032" y="51.603" class="d">1.7</text><text font-size="1.67" x="20.04" y="51.603" class="d">days</text><text font-size="1.67" x="25.05" y="51.603" class="d">84</text><text font-size="1.67" x="28.055999999999997" y="51.603" class="d">days</text></svg></svg></g></svg></svg>